<svg version="1.2" xmlns="http://www.w3.org/2000/svg" viewBox="0 0 223 224" width="223" height="224">
	<title>Bosch_symbol_logo_black_red-svg</title>
	<style>
		.s0 { fill: transparent } 
		.s1 { fill: #000000 } 
	</style>
	<path id="Camada 1" class="s0" d="m111 170c-32.1 0-58-25.9-58-58 0-32.1 25.9-58 58-58 32.1 0 58 25.9 58 58 0 32.1-25.9 58-58 58z"/>
	<g id="Pasta 1">
		<path fill-rule="evenodd" class="s1" d="m130.2 67.3c5.9 2.4 11.2 5.9 15.7 10.4 4.5 4.5 8 9.8 10.4 15.7 2.4 5.8 3.7 12.1 3.7 18.4 0 19.5-11.7 37.1-29.8 44.5-18 7.5-38.7 3.4-52.5-10.4-13.8-13.8-17.9-34.5-10.4-52.5 7.4-18.1 25-29.8 44.5-29.8 6.3 0 12.6 1.3 18.4 3.7zm-1.7 84.9c5.3-2.2 10.1-5.5 14.2-9.5 4-4.1 7.3-8.9 9.5-14.2 2.2-5.3 3.3-11 3.3-16.7 0-17.7-10.6-33.6-27-40.4-16.3-6.7-35.1-3-47.6 9.5-12.5 12.5-16.2 31.3-9.5 47.6 6.8 16.4 22.7 27 40.4 27 5.7 0 11.4-1.1 16.7-3.3z"/>
		<path fill-rule="evenodd" class="s1" d="m143.6 94.7c2.8 5.3 4.3 11.1 4.3 17.1 0 6-1.5 11.8-4.3 17.1-2.8 5.2-6.9 9.7-11.9 13h-3.3v-16.5h-33.1v16.5h-3.4c-5-3.3-9.1-7.8-11.9-13-2.8-5.3-4.3-11.1-4.3-17.1 0-6 1.5-11.8 4.3-17.1 2.8-5.2 6.9-9.7 11.9-13h3.4v16.5h33.1v-16.5h3.3c5 3.3 9.1 7.8 11.9 13zm-52.9-6.5c-3.3 3-6 6.6-7.8 10.7-1.9 4-2.8 8.4-2.8 12.9 0 4.5 0.9 8.9 2.8 12.9 1.8 4.1 4.5 7.7 7.8 10.7zm37.7 14.5h-33.1v18.1h33.1zm12.3 21.9c1.8-4 2.7-8.4 2.7-12.9 0-4.4-0.9-8.8-2.7-12.8-1.9-4.1-4.5-7.7-7.8-10.7v47.1c3.3-3 5.9-6.6 7.8-10.7z"/>
	</g>
</svg>